<svg width="64" height="64" viewBox="0 0 64 64" fill="none" xmlns="http://www.w3.org/2000/svg">
<g clip-path="url(#clip0_1_103)">
<path d="M42.7978 33.9189C39.918 29.4263 35.0132 26.7437 29.6772 26.7437C24.3413 26.7437 19.4365 29.4263 16.5571 33.9189L9.61767 44.7446C8.4663 46.5405 7.93505 48.6157 8.08105 50.7441C8.22705 52.873 9.0371 54.8555 10.4233 56.4785C11.8105 58.1001 13.6435 59.2085 15.7241 59.6841C17.8047 60.1597 19.9375 59.9565 21.8916 59.0977L22.0225 59.0396C26.9394 56.9214 32.5581 56.9409 37.4624 59.0977C38.7275 59.6538 40.0679 59.9351 41.4204 59.9351C42.1558 59.9351 42.8955 59.8516 43.6284 59.6846C45.709 59.2095 47.542 58.1011 48.9297 56.479C50.3164 54.8574 51.1269 52.8745 51.2734 50.7451C51.4199 48.6157 50.8887 46.541 49.7373 44.7441L42.7978 33.9189Z" fill="#726DA8"/>
<path d="M11.4869 33.9048C13.5513 33.1119 15.1197 31.4483 15.9029 29.2202C16.6485 27.1001 16.5875 24.7066 15.7305 22.48C14.8731 20.2549 13.3135 18.4385 11.3389 17.3648C9.2647 16.2373 6.98589 16.0537 4.92486 16.8482C0.778373 18.4424 -1.12446 23.5664 0.683646 28.273C2.12798 32.0191 5.49663 34.3838 8.9024 34.3838C9.77203 34.3838 10.6441 34.2295 11.4869 33.9048Z" fill="#726DA8"/>
<path d="M24.9517 25.4233C30.1353 25.4233 34.3525 20.6187 34.3525 14.7129C34.3525 8.80566 30.1353 4 24.9517 4C19.7686 4 15.5518 8.80566 15.5518 14.7129C15.5518 20.6187 19.7686 25.4233 24.9517 25.4233Z" fill="#726DA8"/>
<path d="M41.1871 28.0547H41.1876C41.985 28.3193 42.7984 28.4458 43.6085 28.4458C47.3888 28.4458 51.0729 25.6943 52.4786 21.4658C53.2882 19.0317 53.235 16.458 52.3287 14.2192C51.3805 11.8755 49.6232 10.1743 47.38 9.42871C45.1363 8.6831 42.7101 8.99414 40.5475 10.3037C38.4815 11.5547 36.8985 13.5845 36.0899 16.0186C34.3834 21.1533 36.67 26.5527 41.1871 28.0547Z" fill="#726DA8"/>
<path d="M60.9843 26.8047L60.9828 26.8033C57.4081 24.1626 52.0619 25.3072 49.0643 29.356C46.0697 33.4068 46.538 38.8526 50.1073 41.4951C51.4091 42.4595 52.9472 42.9204 54.5214 42.9204C57.265 42.9204 60.1195 41.5201 62.0277 38.9449C65.0219 34.8941 64.5541 29.4483 60.9843 26.8047Z" fill="#726DA8"/>
</g>
<defs>
<clipPath id="clip0_1_103">
<rect width="64" height="64" fill="white"/>
</clipPath>
</defs>
</svg>
