<?xml version="1.0" encoding="utf-8"?><svg viewBox="0 0 722 117" xmlns="http://www.w3.org/2000/svg" xmlns:xlink="http://www.w3.org/1999/xlink"><style>:root>svg{display:none}:root>svg:target{display:block}</style><svg fill="none" viewBox="0 0 722 117" id="angle" xmlns="http://www.w3.org/2000/svg"><path d="M721 116L.5 115.5 0 1c148 46.5 325.5 110 721 115z" fill="#fff" stroke="#fff"/></svg><svg viewBox="0 0 40 40" id="insta" xmlns="http://www.w3.org/2000/svg"><g clip-path="url(#bclip0_1_117)"><path d="M7.917 40h24.166C36.448 40 40 36.448 40 32.083V7.917C40 3.552 36.448 0 32.083 0H7.917C3.552 0 0 3.552 0 7.917v24.166C0 36.448 3.552 40 7.917 40zM2.5 7.917A5.423 5.423 0 017.917 2.5h24.166A5.423 5.423 0 0137.5 7.917v24.166a5.423 5.423 0 01-5.417 5.417H7.917A5.423 5.423 0 012.5 32.083V7.917z"/><path d="M20 30.217c5.633 0 10.217-4.584 10.217-10.217 0-5.633-4.584-10.217-10.217-10.217-5.633 0-10.217 4.584-10.217 10.217 0 5.633 4.584 10.217 10.217 10.217zm0-17.934c4.255 0 7.717 3.462 7.717 7.717 0 4.255-3.462 7.717-7.717 7.717-4.255 0-7.717-3.462-7.717-7.717 0-4.255 3.462-7.717 7.717-7.717zm10.596-.013c1.644 0 2.882-1.233 2.882-2.868 0-1.705-1.303-2.869-2.88-2.869-1.643 0-2.881 1.234-2.881 2.869 0 1.701 1.296 2.868 2.88 2.868zm.296-3.143c.526.465-.675 1.03-.675.276 0-.45.611-.333.675-.276z"/></g><defs><clipPath id="bclip0_1_117"><path fill="#fff" d="M0 0h40v40H0z"/></clipPath></defs></svg><svg viewBox="0 0 64 64" id="logo" xmlns="http://www.w3.org/2000/svg"><g clip-path="url(#cclip0_1_103)"><path d="M42.798 33.919a15.519 15.519 0 00-13.12-7.175 15.518 15.518 0 00-13.12 7.175l-6.94 10.826a9.797 9.797 0 00-1.537 6 9.8 9.8 0 002.342 5.733 9.8 9.8 0 005.301 3.206 9.796 9.796 0 006.168-.586l.13-.058a19.39 19.39 0 0115.44.058 9.81 9.81 0 006.166.587 9.798 9.798 0 005.302-3.206 9.795 9.795 0 002.343-5.734 9.798 9.798 0 00-1.536-6l-6.94-10.826zm-31.311-.014c2.064-.793 3.633-2.457 4.416-4.685.745-2.12.684-4.513-.173-6.74-.857-2.225-2.417-4.041-4.391-5.115-2.074-1.128-4.353-1.311-6.414-.517-4.147 1.594-6.05 6.718-4.241 11.425 1.444 3.746 4.813 6.11 8.218 6.11a7.18 7.18 0 002.585-.478zm13.465-8.482c5.183 0 9.4-4.804 9.4-10.71C34.352 8.806 30.136 4 24.953 4c-5.183 0-9.4 4.806-9.4 10.713 0 5.906 4.217 10.71 9.4 10.71zm16.235 2.632c.798.264 1.611.39 2.422.39 3.78 0 7.464-2.75 8.87-6.98.81-2.433.756-5.007-.15-7.246-.949-2.343-2.706-4.045-4.949-4.79-2.244-.746-4.67-.435-6.833.875-2.066 1.25-3.648 3.28-4.457 5.715-1.707 5.134.58 10.534 5.097 12.036zm19.797-1.25l-.001-.002c-3.575-2.64-8.921-1.496-11.919 2.553-2.994 4.05-2.526 9.497 1.043 12.14 1.302.963 2.84 1.424 4.414 1.424 2.744 0 5.599-1.4 7.507-3.975 2.994-4.05 2.526-9.497-1.044-12.14z"/></g><defs><clipPath id="cclip0_1_103"><path fill="#fff" d="M0 0h64v64H0z"/></clipPath></defs></svg><svg viewBox="0 0 40 40" id="telegram" xmlns="http://www.w3.org/2000/svg"><g clip-path="url(#dclip0_1_121)"><path d="M.692 18.66l9.781 4.875c.379.187.825.173 1.187-.038l8.707-5.062-5.27 4.67a1.251 1.251 0 00-.422.937v11.375c0 1.2 1.532 1.705 2.25.751l4.228-5.621 10.457 5.955a1.25 1.25 0 001.843-.84l6.522-32.5c.195-.977-.777-1.774-1.68-1.41L.795 16.377c-1.007.393-1.072 1.801-.103 2.283zM37.075 4.912l-5.732 28.561-9.908-5.643a1.253 1.253 0 00-1.618.335l-2.642 3.512v-7.074l14.252-12.626c1.128-.999-.169-2.774-1.457-2.017L10.987 20.997l-6.654-3.315 32.742-12.77z"/></g><defs><clipPath id="dclip0_1_121"><path fill="#fff" d="M0 0h40v40H0z"/></clipPath></defs></svg><svg viewBox="0 0 40 40" id="vk" xmlns="http://www.w3.org/2000/svg"><g clip-path="url(#eclip0_1_123)"><path d="M20.242 32.5c5.786 0 3.723-3.663 4.17-4.717-.007-.786-.014-1.543.013-2.003.367.103 1.232.542 3.018 2.278 2.759 2.784 3.464 4.442 5.692 4.442h4.102c1.3 0 1.976-.538 2.315-.99.326-.437.646-1.203.296-2.397-.915-2.873-6.251-7.835-6.583-8.358.05-.097.13-.225.172-.292h-.004c1.054-1.391 5.074-7.415 5.665-9.825a.03.03 0 00.004-.013c.32-1.1.026-1.813-.277-2.217-.457-.603-1.183-.908-2.165-.908h-4.102c-1.373 0-2.415.692-2.941 1.953-.882 2.242-3.359 6.852-5.215 8.484-.057-2.312-.019-4.077.011-5.389.06-2.558.254-5.048-2.401-5.048h-6.447c-1.663 0-3.255 1.817-1.532 3.973 1.507 1.89.542 2.944.867 8.187-1.267-1.358-3.52-5.027-5.113-9.715-.447-1.268-1.124-2.443-3.029-2.443H2.657C.993 7.502 0 8.408 0 9.927 0 13.337 7.548 32.5 20.242 32.5zM6.758 10.002c.362 0 .399 0 .667.761 1.632 4.805 5.292 11.915 7.965 11.915 2.008 0 2.008-2.058 2.008-2.833l-.001-6.17c-.11-2.042-.854-3.058-1.342-3.675l5.847.007c.003.028-.034 6.825.016 8.471 0 2.339 1.857 3.679 4.755.745 3.059-3.451 5.174-8.611 5.259-8.821.125-.3.233-.402.626-.402h4.119l-.004.015c-.375 1.75-4.076 7.327-5.315 9.058a1.43 1.43 0 00-.056.084c-.545.89-.989 1.873.075 3.256h.001c.097.117.349.39.715.77 1.14 1.177 5.05 5.2 5.397 6.8-.23.037-.48.01-4.355.019-.825 0-1.47-1.234-3.932-3.717-2.213-2.153-3.65-3.033-4.958-3.033-2.54 0-2.355 2.061-2.332 4.555.009 2.703-.008 1.848.01 2.018-.148.058-.573.175-1.681.175C9.667 30 2.78 13.215 2.515 10.007c.092-.009 1.353-.004 4.243-.005z"/></g><defs><clipPath id="eclip0_1_123"><path fill="#fff" d="M0 0h40v40H0z"/></clipPath></defs></svg></svg>