<svg width="40" height="40" viewBox="0 0 40 40" xmlns="http://www.w3.org/2000/svg">
<g clip-path="url(#clip0_1_117)">
<path d="M7.91666 40H32.0834C36.4483 40 40 36.4483 40 32.0834V7.91666C40 3.55166 36.4483 0 32.0834 0H7.91666C3.55166 0 0 3.55166 0 7.91666V32.0834C0 36.4483 3.55166 40 7.91666 40ZM2.5 7.91666C2.5 4.93 4.93 2.5 7.91666 2.5H32.0834C35.07 2.5 37.5 4.93 37.5 7.91666V32.0834C37.5 35.07 35.07 37.5 32.0834 37.5H7.91666C4.93 37.5 2.5 35.07 2.5 32.0834V7.91666Z"/>
<path d="M20.0002 30.2167C25.6334 30.2167 30.2168 25.6334 30.2168 20.0001C30.2168 14.3667 25.6334 9.78336 20.0002 9.78336C14.3668 9.78336 9.78345 14.3667 9.78345 20.0001C9.78345 25.6334 14.3668 30.2167 20.0002 30.2167ZM20.0002 12.2834C24.2551 12.2834 27.7168 15.745 27.7168 20.0001C27.7168 24.255 24.2551 27.7167 20.0002 27.7167C15.7451 27.7167 12.2834 24.255 12.2834 20.0001C12.2834 15.745 15.7451 12.2834 20.0002 12.2834Z"/>
<path d="M30.5965 12.2698C32.2398 12.2698 33.4782 11.0366 33.4782 9.40152C33.4782 7.69654 32.1749 6.5332 30.5982 6.5332C28.9549 6.5332 27.7166 7.76654 27.7166 9.40152C27.7166 11.1032 29.0132 12.2698 30.5965 12.2698ZM30.8915 9.12656C31.4182 9.59152 30.2165 10.1566 30.2165 9.4032C30.2165 8.9532 30.8282 9.06984 30.8915 9.12656Z"/>
</g>
<defs>
<clipPath id="clip0_1_117">
<rect width="40" height="40" fill="white"/>
</clipPath>
</defs>
</svg>
