<svg width="56" height="56" viewBox="0 0 56 56" fill="none" xmlns="http://www.w3.org/2000/svg">
<circle cx="28" cy="28" r="28" fill="#BEE7E8"/>
<path d="M37.6776 19C37.3729 18.9999 37.0711 19.0599 36.7895 19.1767C36.508 19.2935 36.2524 19.4647 36.0372 19.6805L25.2919 30.4244L19.967 25.0991C19.7516 24.8828 19.4956 24.7111 19.2137 24.5939C18.9318 24.4766 18.6295 24.4161 18.3242 24.4158C18.0189 24.4155 17.7166 24.4754 17.4344 24.5921C17.1523 24.7088 16.896 24.88 16.6801 25.0958C16.4642 25.3117 16.293 25.5681 16.1763 25.8502C16.0596 26.1323 15.9997 26.4347 16 26.74C16.0003 27.0453 16.0608 27.3476 16.1781 27.6295C16.2953 27.9114 16.467 28.1674 16.6834 28.3828L23.65 35.35C23.8656 35.5657 24.1215 35.7368 24.4033 35.8536C24.685 35.9703 24.9869 36.0304 25.2919 36.0304C25.5968 36.0304 25.8988 35.9703 26.1805 35.8536C26.4622 35.7368 26.7182 35.5657 26.9337 35.35L39.3195 22.9642C39.6443 22.6395 39.8656 22.2258 39.9553 21.7753C40.045 21.3248 39.9991 20.8578 39.8233 20.4334C39.6475 20.0091 39.3499 19.6464 38.9679 19.3912C38.586 19.1361 38.1369 18.9999 37.6776 19V19Z" fill="white"/>
</svg>
